<svg width="64" height="64" viewBox="0 0 64 64" fill="none" xmlns="http://www.w3.org/2000/svg">
<path d="M32 18.6667V56" stroke="#9810FA" stroke-width="5.33333" stroke-linecap="round" stroke-linejoin="round"/>
<path d="M8.00001 48C7.29277 48 6.61449 47.7191 6.11439 47.219C5.61429 46.7189 5.33334 46.0406 5.33334 45.3333V10.6667C5.33334 9.95942 5.61429 9.28115 6.11439 8.78105C6.61449 8.28095 7.29277 8 8.00001 8H21.3333C24.1623 8 26.8754 9.12381 28.8758 11.1242C30.8762 13.1246 32 15.8377 32 18.6667C32 15.8377 33.1238 13.1246 35.1242 11.1242C37.1246 9.12381 39.8377 8 42.6667 8H56C56.7073 8 57.3855 8.28095 57.8856 8.78105C58.3857 9.28115 58.6667 9.95942 58.6667 10.6667V45.3333C58.6667 46.0406 58.3857 46.7189 57.8856 47.219C57.3855 47.7191 56.7073 48 56 48H40C37.8783 48 35.8434 48.8429 34.3432 50.3431C32.8429 51.8434 32 53.8783 32 56C32 53.8783 31.1572 51.8434 29.6569 50.3431C28.1566 48.8429 26.1217 48 24 48H8.00001Z" stroke="#9810FA" stroke-width="5.33333" stroke-linecap="round" stroke-linejoin="round"/>
</svg>